<?xml version="1.0" encoding="utf-8"?>
<!-- Generator: Adobe Illustrator 20.1.0, SVG Export Plug-In . SVG Version: 6.00 Build 0)  -->
<svg version="1.1" id="Layer_1" xmlns="http://www.w3.org/2000/svg" xmlns:xlink="http://www.w3.org/1999/xlink" x="0px" y="0px"
	 viewBox="0 0 612 792" style="enable-background:new 0 0 612 792;" xml:space="preserve">
<style type="text/css">
	.st0{fill-rule:evenodd;clip-rule:evenodd;fill:#010101;}
	.st1{fill-rule:evenodd;clip-rule:evenodd;fill:#D1D3D4;}
	.st2{fill-rule:evenodd;clip-rule:evenodd;fill:#8DC63F;}
</style>
<g>
	<g>
		<path class="st0" d="M335,359.5c-0.4-0.4-0.4-0.9-0.3-1.4c0.3-0.9,1.4-1.2,2.2-1.6c1.6-0.9,3.6-2.1,4.1-2.9
			c-0.2,0.9-0.6,1.7-1.1,2.3c1-0.1,1.8,0.2,2.5,0.6c1.5-0.3,3.1-1.1,4.7-2.6c-0.6,1.7-2.3,3.2-3.7,4.1c0.2,0.2,0.4,0.8,0.4,1.1
			c2.4,1.3,4.1,3.1,4,6c1.9,1.8,2.5,3.5,4.3,5.5c1.4,0.7,2.3,1.9,1.8,3.9c-0.2,0.8-0.3,1.4-1.5,1.8c-0.5,0.7-1.2,1.2-2.8,0.9
			c-2.9-0.8-5.6,2.6-9.9,1.5c-0.6,1.5-2.2,3-3.6,3.5c-0.7,3.8-3.5,6.9-6.3,8.2c-0.9,1.9-3,4-5,4.9c-0.1,3.6-0.8,6-1.8,9.6
			c0,2.5,0.5,5.2,1.2,7.8c0.6,0.8,5.8,5.4,3.4,5.7c-0.9,0.1-2.9,0.1-3.6-0.1c-1.3-0.3-2.1-1.3-2.8-3c-0.6,0-1-0.5-1-1.3
			c-0.2-5.3-0.7-7.6-1.4-10.1c-0.2,0.9-0.4,1.8-0.6,2.4c-0.2,2.8-0.1,5.5,0.1,8.2c0.8,1.1,3.9,4.5,1.9,4.8c-0.9,0.2-2.3,0.1-3.2-0.1
			c-2.3-0.5-3.3-2-2.6-4.3c-0.9,0.1-1.1-0.5-1-1.6c0.7-3.9,0.3-6.7-0.2-9.5c-0.4-2.5-0.7-3.5-0.7-6.4c-4.3,0.5-8.8,0.3-12.1-0.4
			c-1.3-0.2-3.8-0.5-4.5,0.9c-0.2,0.4-0.2,0.9-0.2,1.4c-2.6-0.8-2.3-2.4-7.2-3.3c-3.2-0.7-5.6-0.6-8.7-1.6c-2.5,4.2-4.2,4.4-4.8,7.6
			c-0.6,3.3,1,6.9,2.5,9.7c1,1.1,6.4,6.2,3.4,6.5c-1,0.1-3.8,0.2-5-0.1c-1.2-1.3-1.5-2.7-1.5-3.9c-0.7,0.3-1.2-0.1-1.6-1.1
			c-0.5-1.6-0.7-2.3-1.3-4c-1.3-3.7-2.4-4.9-3.2-9c-3.5,4.3-2.2,9.9-1.6,14.9c1.6,2.5,4.3,4.9,0.2,5c-2,0-3.8-0.3-4.1-1.4
			c-0.2-0.8-0.4-2.7-0.5-3.6c-0.5,0.7-1.4,0.4-1.1-1.2c0.2-6.5-0.7-10.7-1-12.9c-0.2-1.5-0.3-2.3,0-3.2c-0.3,0.2-0.5,0.4-0.7,0.4
			c0.1-0.2,0.2-0.4,0.3-0.6c-0.6,0.6-1.3,1-2.4,0.8c0.4-0.1,1.1-0.4,1.4-0.8c-0.2,0.1-0.5,0.1-0.7,0c2.6-1.3,2.1-4.6,2.6-6.9
			c0.3-1.7,0.8-3,2-3.3c0.3-3.3-0.8-9.2-1-13.8c-0.3-4.8,1-7.9,4.7-9.1c3.5-2.8,9.7-1.9,15.1-1.6c4.9,0.3,10.1,0.7,14.6,0.7
			c1.9,0,3.6,0,5.2-0.1c6.9-0.3,15.6-2.9,23.4-2.5C329,359.8,330.6,359.8,335,359.5L335,359.5z M263.9,387.4
			c0.6,0.5,0.9,1.2,0.9,1.9c0.6-3.5,0-8.5-1.2-10.3C263.8,380.6,264.2,384.8,263.9,387.4z"/>
		<path class="st1" d="M268.9,410.6c0.2-1.2,1.9-2.2,0.8-4c-1.1-1.9-1.7-3.8-1.9-5.5c-0.2-1.7,0.1-3.3,0.7-4.8
			c0-0.1-0.1-0.3-0.1-0.4c-0.2,0.2-0.6,0.4-1,0.5c-0.8,0.1-1.3-0.2-1.6-0.6c-0.2-0.3-0.2-0.6-0.2-0.9c0-0.3,0.2-0.6,0.4-0.9
			c0.4-0.5,1.1-0.5,1.6-0.2c0.2,0.1,0.5,0.4,0.7,0.6c0.1-0.5-0.3-1.1-0.6-1.5c-0.2-0.2-0.4-0.4,0.1-0.3c0.4,0.1,0.8,0.5,1,1
			c0.1,0.3,0.2,0.5,0.2,0.8c0,0.3,0,0.5-0.1,0.8c0,0,0,0,0,0c0,0.1,0.1,0.2,0.1,0.3c1.8-3.3,5.5-5.5,10.1-6.4
			c3.4-0.6,8.1-0.7,12.8-0.5c4.7,0.2,9.4,0.8,12.7,1.5c5.5,1.2,10,3.2,13,6.6c1.7-0.2,2.6-0.8,2.9-1.7c0.4,0.1,0.4,1,0,2.4
			c0.4-0.2,0.8-0.5,1.1-0.9c0.2-0.3,0.4-0.2,0.5,0c0.4,0.5,0.5,1.3,0.3,2c-0.3,1.2-1.8,2.1-3.5,2.7c-0.3,1-0.1,2,0.2,2.8
			c0.9,1.1,1.6,1.8,2.9,2.6c0.6,0,1,0.3,0.5,1.4c-0.5,1.1-1.4,1.8-3.1,1.7c-0.6,0.2-1.8,0.5-4.2,0.4c-3.2,0.7-6.6,1-9.3,0.4
			c-0.6,2.2-0.7,5,0.1,7.4c0.2,0.3,0.5,0.6,0.7,0.9c0.4,0.6,0.4,0.9-0.4,0.9c-0.8,0-2-0.2-2.4-0.5c-0.2-0.3-0.3-0.6-0.5-0.9
			c-0.2,0.1-0.4,0.1-0.2-0.8c-0.2-0.8-0.4-1.3-0.6-2c-0.3-0.4-0.5-0.9-0.8-1.3c-0.1,1,0,2.5,0.2,3.6c0.2,0.3,0.4,0.7,0.5,1
			c0.3,0.6,0.3,1-0.5,0.9c-0.8-0.1-2-0.4-2.2-0.9c-0.1-0.3-0.2-0.6-0.3-0.9c-0.1,0-0.4,0.1-0.1-0.8c0-0.8-0.1-2.1-0.1-2.8
			c-0.7-1.6-1-2.9-1.2-4.2c-3.2,0.9-7,0.8-10.6,0.9c-3.6,0.1-7-0.2-9.6-1c-0.7,3.1,0,4.9,1.6,7.2c0.4,0.4,0.7,0.8,1,1.2
			c0.2,0.3,0.3,0.5-0.4,0.7c-0.5,0.1-1.2,0.1-1.8-0.1c-1.2-0.4-1-0.9-1.5-1.8c-0.6,0.1-1.1-0.2-1.2-1.1c-0.5-1.7-1-3.2-1.7-4.7
			c-0.6,0.7-1.3,1.4-2,2.1c-0.2,1.7-0.1,3.4,1,4.7c0.6,0.3,0.9,0.6,1.2,0.9c0.4,0.4,0.3,0.6-0.3,0.8c-0.8,0.2-2.4,0.2-3-0.3
			c-0.3-0.4-0.5-0.7-0.6-1.2c-0.3,0-0.6-0.3-0.7-1.3C269.6,415.9,268.6,412.4,268.9,410.6L268.9,410.6z M268,395.4
			c-0.2-0.3-0.5-0.6-0.7-0.7c-0.4-0.2-0.7-0.1-0.9,0.1c-0.1,0.1-0.2,0.2-0.2,0.4c0,0.1,0,0.3,0.1,0.4c0.1,0.2,0.4,0.4,0.9,0.3
			C267.6,395.7,267.8,395.6,268,395.4z"/>
		<path class="st0" d="M292.9,416.4c0.1,0.3,0.2,0.8,0.5,1c0.3,0.2,0.5,0.1,0.8,0.2c0.2,0.1,0.2,0.2,0.2,0.2c0.5,0,0.8,0,1.1,0
			c0.2,0,0.4,0.2,0.5,0.3c-0.1-0.1-0.3-0.1-0.4-0.1c-0.1,0.1-0.3,0.1-0.5,0c-0.5,0.1-1,0-1.5,0c0.2,0.2,0.3,0.4,0.2,0.5l0.4,0
			c0,0,0.1,0,0.1,0c0,0,0,0,0.1,0c0.2,0,0.4,0,0.5-0.1c0,0,0,0,0,0c0,0,0,0,0,0c0,0,0,0,0,0c0,0,0,0,0.1,0c0,0,0,0,0,0
			c0,0,0,0,0.1,0c0,0,0,0,0,0c0,0,0,0,0.1,0c0,0,0,0,0,0c0,0,0,0,0.1,0c0,0,0,0,0,0c0,0,0,0,0.1,0c0,0,0,0,0.1,0c0,0,0,0,0,0
			c0,0,0,0.1,0.1,0.1c0.1,0.1,0.2,0.1,0.2,0.2c0,0,0,0,0,0c0,0,0,0,0,0c0,0,0,0,0,0c0,0-0.1,0-0.1,0c0,0,0,0,0,0c0,0,0,0,0,0
			c0,0,0,0,0,0c0,0,0,0-0.1,0c0,0,0,0,0,0c0,0,0,0-0.1,0c0,0,0,0,0,0c0,0,0,0-0.1,0c0,0,0,0-0.1,0c-0.1,0-0.2,0-0.3,0.1
			c0,0-0.1,0-0.1,0c0,0,0,0-0.1,0c-0.1,0-0.1,0-0.2,0c0,0-0.1,0-0.1,0c0,0,0,0-0.1,0c-0.1,0-0.2,0-0.3,0.1c0,0,0,0,0.1,0
			c0,0,0,0,0.1,0c0,0,0.1,0,0.1,0c0.1,0,0.1,0,0.2,0c0,0,0.1,0,0.1,0c0,0,0,0,0,0c0,0,0,0,0.1,0c0,0,0,0,0,0c0,0,0,0,0,0
			c0,0,0,0,0,0c0,0,0,0,0,0c0,0,0.1,0.1,0.1,0.1c0,0,0,0,0,0c0,0,0,0.1,0,0.1l0,0c0,0.1,0.1,0.1,0.1,0.2c0,0,0,0,0,0c0,0,0,0,0,0
			c0,0,0,0,0,0c0,0,0-0.1-0.1-0.1c0,0,0,0,0,0c0,0,0,0,0,0c0,0-0.1,0-0.1,0h0h0c0,0-0.1,0-0.1,0c0,0,0,0,0,0c0,0-0.1,0-0.1,0
			c0,0,0,0,0,0c0,0-0.1,0-0.1,0c0,0,0,0,0,0c0,0,0,0,0,0c-0.1,0-0.1,0-0.2,0c0,0-0.1,0-0.1,0c-0.1,0-0.1,0-0.2-0.1c0,0,0,0,0,0
			c-0.1,0-0.2-0.1-0.2-0.1c0,0,0,0,0,0c-0.1,0-0.1-0.1-0.2-0.1c0,0,0,0,0,0c0,0-0.1,0-0.2,0c0,0-0.1,0-0.1,0c0,0,0,0-0.1,0
			c0,0,0,0,0,0c0,0,0,0-0.1,0c0,0,0,0,0,0c0,0,0,0,0,0c0,0-0.1,0-0.1,0c0,0,0,0-0.1,0c0,0,0,0,0,0c0,0,0,0,0,0c0,0,0,0,0-0.1
			c0,0,0,0,0,0c0,0,0,0,0,0c0,0,0,0,0,0c0,0,0,0,0,0c0,0,0,0,0,0c0,0,0,0,0,0c0,0,0,0,0,0c0,0,0,0-0.1,0c0,0,0,0,0,0
			c0,0-0.1,0-0.1,0c0,0-0.1,0-0.1,0c0,0-0.1,0-0.1,0c0,0-0.1,0-0.1,0c0,0,0,0,0,0c-0.1,0-0.1,0-0.2,0c0,0,0,0,0,0c0,0,0,0,0,0
			c0,0,0,0,0,0c0.1-0.1,0.2-0.1,0.3-0.2c0,0,0,0,0,0c0,0,0-0.1,0-0.1c0,0,0,0,0,0c0,0,0,0,0,0c0,0,0-0.1,0.1-0.1c0,0,0,0,0.1-0.1
			c0,0,0,0,0.1-0.1c0,0,0.1-0.1,0.1-0.2c0.1-0.1,0-0.2,0-0.4c-0.1,0-0.2,0.1-0.3,0c-0.1,0-0.2,0-0.3,0.1c0.1-0.1,0.1-0.2,0.3-0.2
			c0.1,0,0.2-0.1,0.3-0.2l-0.1-0.4c0-0.1,0-0.2-0.1-0.2c0-0.1-0.1-0.2-0.1-0.2c0-0.1-0.1-0.2-0.1-0.2l0-0.1c-0.3,0-0.6-0.1-0.8-0.2
			c0,0-0.1-0.1-0.1-0.1c0,0-0.1-0.1-0.1-0.1c0,0-0.1-0.1-0.1-0.1c0,0-0.1-0.1-0.1-0.1c0,0-0.1-0.1-0.1-0.1c0,0-0.1-0.1-0.1-0.1
			c0,0-0.1-0.1-0.1-0.1c0,0,0,0,0,0l-0.1,0c0,0-0.1,0-0.1,0c0,0-0.1,0-0.1,0c-0.1,0-0.2-0.1-0.3-0.1c-0.1,0-0.2-0.1-0.4-0.1
			c-0.1,0-0.1-0.1-0.2-0.1c-0.1,0-0.1-0.1-0.2-0.1c-0.1,0-0.1-0.1-0.2-0.1c-0.1,0-0.1-0.1-0.2-0.1c-0.1,0-0.1-0.1-0.2-0.1
			c-0.1,0-0.1-0.1-0.2-0.1c-0.1,0-0.1-0.1-0.2-0.2c-0.1-0.1-0.1-0.1-0.2-0.2c-0.1-0.1-0.1-0.1-0.2-0.2c-0.1-0.1-0.1-0.1-0.2-0.2
			c-0.1-0.1-0.1-0.1-0.1-0.2c0-0.1-0.1-0.1-0.1-0.2c-0.1-0.1-0.2-0.2-0.2-0.3c0-0.1-0.1-0.1-0.1-0.1c0,0,0-0.1-0.1-0.1
			c0-0.1-0.1-0.2-0.1-0.2l-0.1-0.1l0,0c-0.2-0.1-0.5-0.2-0.7-0.3c-0.3-0.1-0.6-0.3-0.8-0.7c0-0.1,0-0.1-0.1-0.2c0-0.1,0-0.3,0.1-0.4
			c0-0.1,0.1-0.2,0.2-0.2c0,0,0,0-0.1,0c0,0-0.1-0.1-0.1-0.1c0,0-0.1-0.1-0.1-0.1c0,0-0.1-0.1-0.1-0.1c0,0,0,0-0.1-0.1
			c0,0,0,0-0.1-0.1c0,0-0.1-0.1-0.1-0.1c0,0,0,0,0-0.1c0,0,0,0,0-0.1c-0.1-0.1-0.1-0.2-0.1-0.3c0-0.2,0-0.5,0.2-0.6
			c0,0,0.1,0,0.1-0.1c0,0-0.1-0.1-0.1-0.1c0,0-0.1-0.1-0.1-0.1c0,0-0.1-0.1-0.1-0.1c0,0-0.1-0.1-0.1-0.1c0,0,0,0,0-0.1
			c0,0,0,0,0-0.1c0,0,0-0.1,0-0.1c0,0,0-0.1,0-0.1c0,0,0-0.1,0-0.1c0,0,0-0.1,0-0.1c-0.1-0.3,0-0.7,0.3-0.8c0,0,0.1,0,0.1,0
			c0,0,0,0,0-0.1c0,0-0.1-0.1-0.1-0.1c0-0.1,0-0.1-0.1-0.2c0-0.1-0.1-0.2-0.1-0.3c0-0.1,0-0.2,0-0.3c0-0.1,0-0.2,0.1-0.3
			c0.1-0.2,0.2-0.4,0.4-0.5c0.1,0,0.1,0,0.2,0l0,0l0,0c0,0,0-0.1,0-0.1c0-0.1,0-0.1,0-0.2c0-0.1,0-0.1,0-0.2c0-0.1,0-0.1,0-0.2
			c0,0,0-0.1,0-0.1c0,0,0-0.1,0-0.1c0,0,0-0.1,0-0.1c0,0,0-0.1,0-0.1c0-0.1,0.1-0.1,0.1-0.2c0.1-0.2,0.3-0.4,0.5-0.4
			c0.1,0,0.1,0,0.2,0c0,0,0,0,0,0c0,0,0,0,0-0.1c0-0.1,0-0.3,0.1-0.4c0.1-0.3,0.3-0.5,0.5-0.7c0.1-0.1,0.2-0.1,0.4-0.1
			c0.1,0,0.2,0,0.2,0.1c0.1,0.1,0.1,0.2,0.2,0.3l0,0c0-0.1,0.1-0.1,0.1-0.2c0.1-0.1,0.1-0.2,0.2-0.3c0.2-0.2,0.4-0.4,0.7-0.4
			c0.1,0,0.2,0,0.2,0c0.4,0.1,0.4,0.4,0.3,0.6c0,0.1-0.1,0.3-0.1,0.4c-0.1,0.5,0,1.3,0.1,1.8c0,0.1,0,0.1,0,0.2
			c0,0.2,0.1,0.5,0.2,0.7c0.1,0.2,0.1,0.4,0.2,0.6c0.2,0.1,0.5,0.4,0.7,0.5c0.1,0.1,0.2,0.1,0.3,0.2c0,0,0.1,0,0.1,0.1
			c0,0,0-0.1,0.1-0.1c0,0,0.1,0,0.1,0c0,0,0.1,0.1,0.1,0.1c0.5,0.3,1.3,0.4,1.9,0.3c0.2-0.1,0.4-0.2,0.6-0.3c0.1,0,0.2-0.1,0.2-0.1
			c0.1-0.1,0.3-0.1,0.4-0.2c0.2-0.1,0.3-0.1,0.5-0.2c0.1,0,0.1,0,0.2-0.1l0.1,0l0.1-0.2c0,0,0.1-0.1,0.1-0.1c0,0,0-0.1,0.1-0.1
			c1-1.7,1.4-3.2,3-3.6c-0.4-0.5,0-1.4,0.3-0.8c0,0,0,0,0,0c0,0,0,0,0,0c0,0,0-0.1,0.1-0.1c0,0,0,0,0,0c0,0,0,0,0,0
			c0,0,0,0.1,0.1,0.1c0,0,0,0,0,0c0,0,0,0,0,0c0,0,0-0.1,0-0.1c0,0,0,0,0,0c0,0,0,0,0,0c0,0.1,0.1,0.1,0.1,0.2c0,0,0,0,0,0
			c0,0,0.2-0.2,0.2-0.3c0,0,0,0,0,0c0.1,0,0.1,0.4,0.1,0.5c0,0,0,0,0,0c0,0,0,0,0,0c0.1-0.1,0.1-0.1,0.1-0.2c0,0,0,0,0,0
			c0,0,0,0,0,0c0,0.1,0,0.2,0,0.3c0,0,0,0,0,0c0,0,0,0,0,0c0,0,0-0.1,0-0.1c0,0,0,0,0,0c0,0,0,0,0,0c0,0.1,0,0.2,0.1,0.3
			c0.2,0.2,0.5,0.4,0.4,0.7c0,0,0,0.1,0,0.1c0,0,0,0,0,0c0,0,0,0,0.1,0c0,0,0,0,0,0c0,0,0,0,0,0c0,0,0,0,0.1,0.1c0,0,0,0,0.1,0.1
			c0,0,0.1,0.1,0.1,0.1c0,0,0,0.1,0.1,0.1c0,0.1,0,0.1-0.1,0.1c0,0,0,0,0,0c0,0-0.1,0-0.1,0c0,0,0,0,0,0c0,0-0.1,0-0.1,0
			c-0.1,0-0.1,0-0.2,0c-0.1,0-0.2,0-0.2,0c0,0,0,0-0.1,0c0,0,0,0,0,0c0.3,0.6-0.1,1-0.6,1c0,0.1,0,0.1,0.1,0.2c0,0.1,0,0.1,0,0.1
			c0,0.1,0.1,0.1,0.1,0.2c0,0,0.1,0.1,0.1,0.1c0,0,0,0,0.1,0.1c0,0,0,0,0.1,0.1c0,0,0,0.1,0,0.1c0,0,0,0-0.1,0c-0.1,0-0.2,0-0.3,0
			c0.9,1.8,1.5,4.5-0.2,6.1c-0.2,0.2-0.5,0.4-0.8,0.5c-0.4,1.3-2,2.6-3.3,2.7c-0.1,0.1-0.2,0.2-0.3,0.3c0,0.1,0,0-0.1,0.1
			C293.6,416.1,293.2,416.3,292.9,416.4z"/>
	</g>
	<g>
		<path class="st2" d="M260.4,426.2c0.7,0.1,1,0.6,0.7,2c-0.3,1.3-0.7,1.6-1.4,1.5l-0.5-0.1l0.7-3.4L260.4,426.2L260.4,426.2z
			 M257.1,432.2l1.5,0.3l0.4-2.2l0.7,0.1c1.1,0.2,2.6-0.2,3-2c0.3-1.6-0.5-2.6-2.1-2.9l-2.2-0.4L257.1,432.2L257.1,432.2z
			 M265.9,427.2c0.8,0.1,1,0.6,0.8,1.8c-0.2,1.1-0.5,1.5-1.3,1.3l-0.6-0.1l0.5-3.1L265.9,427.2L265.9,427.2z M266.2,426.5
			c1.6,0.3,2.4,1.2,2.2,2.6c-0.2,1-0.8,1.6-1.5,1.8l1.2,3.1l-1.7-0.3l-0.9-2.8l-0.6-0.1l-0.4,2.6l-1.5-0.2l1.1-7.1L266.2,426.5
			L266.2,426.5z M273.7,434.1l-2.9-0.4l0.3-2.4l2.4,0.3l0.1-0.8l-2.4-0.3l0.3-2.3l2.8,0.4l0.1-0.8l-4.3-0.6l-1,7.1l4.4,0.6
			L273.7,434.1L273.7,434.1z M283.3,428.7l-1.7-0.2l-2.5,5.1l0,0l-1.5-5.5l-1.8-0.2l-0.8,7.2l0.9,0.1l0.6-5.4l0,0l1.5,5.6l1.1,0.1
			l2.5-5.2l0,0l-0.4,5.4l1.5,0.1L283.3,428.7L283.3,428.7z M286.4,428.9l-1.5-0.1l-0.5,7.2l1.5,0.1L286.4,428.9L286.4,428.9z
			 M290.1,436.5c1.9,0.1,2.7-1,2.8-2.6l0.2-4.6l-0.9,0l-0.2,4.2c-0.1,1.5-0.6,2.2-1.6,2.2c-0.9,0-1.3-0.7-1.2-2.3l0.2-4.2l-1.5-0.1
			l-0.2,4.6C287.5,435.3,288.3,436.4,290.1,436.5L290.1,436.5L290.1,436.5z M302.2,429.5l-1.7,0l-2,5.3h0l-2-5.3l-1.8,0l-0.2,7.2
			l1,0l0.1-5.4h0l1.9,5.5l1.1,0l2.1-5.4h0l0,5.4l1.5,0V429.5L302.2,429.5z M311,432.8c0.1,2-0.4,2.9-1.5,3c-1.1,0-1.6-0.9-1.7-2.9
			c-0.1-2,0.4-2.9,1.5-3C310.4,429.9,310.9,430.9,311,432.8L311,432.8z M312.3,438.5l-0.1-0.6c-0.1,0-0.2,0.1-0.3,0.1
			c-0.6,0-1.2-0.7-1.5-1.4c1.5-0.4,2.3-1.8,2.3-3.8c-0.1-2.3-1.3-3.6-3.4-3.5c-2.1,0.1-3.2,1.6-3.1,3.8c0.1,2.1,1.1,3.4,2.8,3.6
			c0.5,1.1,1.6,2,2.7,2C311.9,438.6,312.1,438.5,312.3,438.5L312.3,438.5z M316.6,436.2c1.9-0.1,2.5-1.3,2.4-2.9l-0.3-4.6l-0.9,0.1
			l0.3,4.2c0.1,1.5-0.3,2.3-1.3,2.3c-0.9,0.1-1.4-0.5-1.5-2.1l-0.3-4.2l-1.5,0.1l0.3,4.6C313.8,435.4,314.8,436.3,316.6,436.2
			L316.6,436.2L316.6,436.2z M322.4,429.5l1.3,3.3l-2.1,0.2L322.4,429.5L322.4,429.5L322.4,429.5z M321.8,428.4l-1.7,7.4l0.9-0.1
			l0.5-2.1l2.5-0.2l0.8,1.9l1.6-0.2l-2.9-6.9L321.8,428.4L321.8,428.4z M331.7,433.7l-2.8,0.4l-0.9-6.3l-1.5,0.2l1,7.1l4.3-0.6
			L331.7,433.7L331.7,433.7z M333.1,427l1.1,7.1l-1.5,0.2l-1.1-7.1L333.1,427L333.1,427z M339.3,426l-5.3,1l0.1,0.8l1.9-0.3l1.1,6.3
			l1.5-0.3l-1.1-6.3l1.9-0.3L339.3,426L339.3,426z M343.3,428.5l-2.2-2.9l-1.7,0.3l3.1,3.9l0.6,2.7l1.5-0.3l-0.6-2.9l1.3-4.6l-1,0.2
			L343.3,428.5L343.3,428.5z"/>
	</g>
</g>
</svg>
